<?xml version="1.0" encoding="UTF-8" standalone="no"?>
<!DOCTYPE svg PUBLIC "-//W3C//DTD SVG 1.1//EN" "http://www.w3.org/Graphics/SVG/1.1/DTD/svg11.dtd">
<svg width="100%" height="100%" viewBox="0 0 172 172" version="1.1" xmlns="http://www.w3.org/2000/svg" xmlns:xlink="http://www.w3.org/1999/xlink" xml:space="preserve" xmlns:serif="http://www.serif.com/" style="fill-rule:evenodd;clip-rule:evenodd;stroke-linejoin:round;stroke-miterlimit:1.41421;">
    <g transform="matrix(1,0,0,1,-114.838,-120.455)">
        <g id="LogoWhiteBack">
            <path d="M200.838,120.455C248.303,120.455 286.838,158.991 286.838,206.455C286.838,253.92 248.303,292.455 200.838,292.455C153.374,292.455 114.838,253.92 114.838,206.455C114.838,158.991 153.374,120.455 200.838,120.455ZM236.879,145.265C251.228,145.265 262.879,156.915 262.879,171.265C262.879,185.615 251.228,197.265 236.879,197.265C222.529,197.265 210.879,185.615 210.879,171.265C210.879,156.915 222.529,145.265 236.879,145.265Z" style="fill:rgb(183,18,52);"/>
        </g>
    </g>
</svg>
