<?xml version="1.0" encoding="UTF-8" standalone="no"?>
<!DOCTYPE svg PUBLIC "-//W3C//DTD SVG 1.1//EN" "http://www.w3.org/Graphics/SVG/1.1/DTD/svg11.dtd">
<svg width="100%" height="100%" viewBox="0 0 583 198" version="1.1" xmlns="http://www.w3.org/2000/svg" xmlns:xlink="http://www.w3.org/1999/xlink" xml:space="preserve" style="fill-rule:evenodd;clip-rule:evenodd;stroke-linejoin:round;stroke-miterlimit:1.41421;">
    <g transform="matrix(1,0,0,1,196.202,-2.81389)">
        <g id="LogoWhiteBack">
            <g>
                <g transform="matrix(1,0,0,1,-447.368,75.0067)">
                    <path d="M434.319,-15.028L548.425,-15.028C551.769,-14.331 553.441,-12.798 553.441,-10.43L553.441,-8.758C551.908,-4.857 540.344,17.574 518.749,58.535L546.335,58.535C549.957,58.953 551.769,60.485 551.769,63.133L551.769,122.484C550.654,124.713 549.121,125.828 547.171,125.828L435.155,125.828C432.09,125.828 430.418,123.877 430.14,119.976L466.921,45.996L471.101,37.219L433.901,37.219C431.672,37.219 430.279,35.686 429.722,32.621L429.722,-10.43C430.279,-13.495 431.812,-15.028 434.319,-15.028Z" style="fill:rgb(183,18,52);fill-rule:nonzero;"/>
                    <path d="M560.755,-15.028L627.212,-15.028C648.528,-15.028 668.452,-7.086 686.982,8.797C701.192,22.59 708.298,38.194 708.298,55.609C708.298,78.597 696.177,97.824 671.935,113.289C657.445,121.648 640.587,125.828 621.36,125.828L562.009,125.828C558.108,125.41 556.157,123.877 556.157,121.23L556.157,-10.43C556.715,-13.495 558.247,-15.028 560.755,-15.028Z" style="fill:rgb(183,18,52);fill-rule:nonzero;"/>
                    <path d="M715.194,-15.028L828.464,-15.028C830.693,-15.028 832.226,-13.495 833.062,-10.43L833.062,31.785C832.644,35.407 830.972,37.219 828.046,37.219L800.46,37.219L800.46,79.433C800.181,83.334 798.51,85.285 795.444,85.285L777.263,85.285L776.636,86.121L776.636,121.23C776.636,123.877 774.685,125.41 770.784,125.828L716.448,125.828C712.547,125.41 710.597,123.877 710.597,121.23L710.597,-9.594C711.154,-13.216 712.687,-15.028 715.194,-15.028Z" style="fill:rgb(183,18,52);fill-rule:nonzero;"/>
                </g>
                <g transform="matrix(1,0,0,1,-111.703,-97.0654)">
                    <g transform="matrix(1,0,0,1,-199.338,5.34326)">
                        <path d="M200.838,120.455C248.303,120.455 286.838,158.991 286.838,206.455C286.838,253.92 248.303,292.455 200.838,292.455C153.374,292.455 114.838,253.92 114.838,206.455C114.838,158.991 153.374,120.455 200.838,120.455ZM236.879,145.265C251.228,145.265 262.879,156.915 262.879,171.265C262.879,185.615 251.228,197.265 236.879,197.265C222.529,197.265 210.879,185.615 210.879,171.265C210.879,156.915 222.529,145.265 236.879,145.265Z" style="fill:rgb(183,18,52);"/>
                    </g>
                    <g transform="matrix(0.330246,0,0,0.316435,21.5754,53.9913)">
                        <ellipse cx="198.646" cy="227.181" rx="78.729" ry="82.165" style="fill:rgb(183,18,52);"/>
                    </g>
                </g>
                <g transform="matrix(1.12881,0,0,0.548366,-394.494,-39.6762)">
                    <path d="M688.887,101.229C690.506,101.28 691.735,102.603 691.735,104.226L691.735,145.646C691.735,147.3 690.458,148.643 688.887,148.643L362.948,148.643C365.307,141.425 366.655,132.884 366.655,123.741C366.655,115.615 365.59,107.963 363.698,101.229L688.887,101.229Z" style="fill:rgb(183,18,52);"/>
                </g>
            </g>
        </g>
    </g>
</svg>
